<mxfile host="Electron" agent="Mozilla/5.0 (Windows NT 10.0; Win64; x64) AppleWebKit/537.36 (KHTML, like Gecko) draw.io/24.7.17 Chrome/128.0.6613.36 Electron/32.0.1 Safari/537.36" version="24.7.17">
  <diagram name="Pagina-1" id="BG_2dQSP2kLUuD5f9nKv">
    <mxGraphModel dx="568" dy="329" grid="1" gridSize="10" guides="1" tooltips="1" connect="1" arrows="1" fold="1" page="1" pageScale="1" pageWidth="827" pageHeight="1169" math="0" shadow="0">
      <root>
        <mxCell id="0" />
        <mxCell id="1" parent="0" />
        <mxCell id="n9YK-MrVJk0RjTGod1bp-1" value="thread 0:" style="text;html=1;align=center;verticalAlign=middle;whiteSpace=wrap;rounded=0;" vertex="1" parent="1">
          <mxGeometry x="200" y="320" width="60" height="40" as="geometry" />
        </mxCell>
        <mxCell id="n9YK-MrVJk0RjTGod1bp-2" value="thread 1:" style="text;html=1;align=center;verticalAlign=middle;whiteSpace=wrap;rounded=0;" vertex="1" parent="1">
          <mxGeometry x="200" y="370" width="60" height="40" as="geometry" />
        </mxCell>
        <mxCell id="n9YK-MrVJk0RjTGod1bp-3" value="thread 2:" style="text;html=1;align=center;verticalAlign=middle;whiteSpace=wrap;rounded=0;" vertex="1" parent="1">
          <mxGeometry x="200" y="420" width="60" height="40" as="geometry" />
        </mxCell>
        <mxCell id="n9YK-MrVJk0RjTGod1bp-4" value="thread 3:" style="text;html=1;align=center;verticalAlign=middle;whiteSpace=wrap;rounded=0;" vertex="1" parent="1">
          <mxGeometry x="200" y="470" width="60" height="40" as="geometry" />
        </mxCell>
        <mxCell id="n9YK-MrVJk0RjTGod1bp-5" value="c(0,0)" style="rounded=1;whiteSpace=wrap;html=1;fillColor=none;fontFamily=Lucida Console;fontSize=10;" vertex="1" parent="1">
          <mxGeometry x="280" y="320" width="40" height="40" as="geometry" />
        </mxCell>
        <mxCell id="n9YK-MrVJk0RjTGod1bp-6" value="&lt;span style=&quot;font-family: &amp;quot;Lucida Console&amp;quot;; font-size: 10px;&quot;&gt;c(0,1)&lt;/span&gt;" style="rounded=1;whiteSpace=wrap;html=1;fillColor=none;" vertex="1" parent="1">
          <mxGeometry x="330" y="320" width="40" height="40" as="geometry" />
        </mxCell>
        <mxCell id="n9YK-MrVJk0RjTGod1bp-7" value="&lt;span style=&quot;font-family: &amp;quot;Lucida Console&amp;quot;; font-size: 10px;&quot;&gt;c(0,2)&lt;/span&gt;" style="rounded=1;whiteSpace=wrap;html=1;fillColor=none;" vertex="1" parent="1">
          <mxGeometry x="380" y="320" width="40" height="40" as="geometry" />
        </mxCell>
        <mxCell id="n9YK-MrVJk0RjTGod1bp-8" value="&lt;span style=&quot;font-family: &amp;quot;Lucida Console&amp;quot;; font-size: 10px;&quot;&gt;c(0,3)&lt;/span&gt;" style="rounded=1;whiteSpace=wrap;html=1;fillColor=none;" vertex="1" parent="1">
          <mxGeometry x="430" y="320" width="40" height="40" as="geometry" />
        </mxCell>
        <mxCell id="n9YK-MrVJk0RjTGod1bp-9" value="c(0,5)" style="rounded=1;whiteSpace=wrap;html=1;fillColor=none;fontFamily=Lucida Console;fontSize=10;" vertex="1" parent="1">
          <mxGeometry x="280" y="370" width="40" height="40" as="geometry" />
        </mxCell>
        <mxCell id="n9YK-MrVJk0RjTGod1bp-10" value="&lt;span style=&quot;font-family: &amp;quot;Lucida Console&amp;quot;; font-size: 10px;&quot;&gt;c(1,1)&lt;/span&gt;" style="rounded=1;whiteSpace=wrap;html=1;fillColor=none;" vertex="1" parent="1">
          <mxGeometry x="380" y="370" width="40" height="40" as="geometry" />
        </mxCell>
        <mxCell id="n9YK-MrVJk0RjTGod1bp-11" value="&lt;span style=&quot;font-family: &amp;quot;Lucida Console&amp;quot;; font-size: 10px;&quot;&gt;c(1,2)&lt;/span&gt;" style="rounded=1;whiteSpace=wrap;html=1;fillColor=none;" vertex="1" parent="1">
          <mxGeometry x="430" y="370" width="40" height="40" as="geometry" />
        </mxCell>
        <mxCell id="n9YK-MrVJk0RjTGod1bp-12" value="&lt;span style=&quot;font-family: &amp;quot;Lucida Console&amp;quot;; font-size: 10px;&quot;&gt;c(1,3)&lt;/span&gt;" style="rounded=1;whiteSpace=wrap;html=1;fillColor=none;" vertex="1" parent="1">
          <mxGeometry x="480" y="370" width="40" height="40" as="geometry" />
        </mxCell>
        <mxCell id="n9YK-MrVJk0RjTGod1bp-13" value="c(2,0)" style="rounded=1;whiteSpace=wrap;html=1;fillColor=none;fontFamily=Lucida Console;fontSize=10;" vertex="1" parent="1">
          <mxGeometry x="380" y="420" width="40" height="40" as="geometry" />
        </mxCell>
        <mxCell id="n9YK-MrVJk0RjTGod1bp-14" value="&lt;span style=&quot;font-family: &amp;quot;Lucida Console&amp;quot;; font-size: 10px;&quot;&gt;c(2,1)&lt;/span&gt;" style="rounded=1;whiteSpace=wrap;html=1;fillColor=none;" vertex="1" parent="1">
          <mxGeometry x="430" y="420" width="40" height="40" as="geometry" />
        </mxCell>
        <mxCell id="n9YK-MrVJk0RjTGod1bp-17" value="c(2,2)" style="rounded=1;whiteSpace=wrap;html=1;fillColor=none;fontFamily=Lucida Console;fontSize=10;" vertex="1" parent="1">
          <mxGeometry x="280" y="470" width="40" height="40" as="geometry" />
        </mxCell>
        <mxCell id="n9YK-MrVJk0RjTGod1bp-18" value="&lt;span style=&quot;font-family: &amp;quot;Lucida Console&amp;quot;; font-size: 10px;&quot;&gt;c(2,3)&lt;/span&gt;" style="rounded=1;whiteSpace=wrap;html=1;fillColor=none;" vertex="1" parent="1">
          <mxGeometry x="330" y="470" width="40" height="40" as="geometry" />
        </mxCell>
        <mxCell id="n9YK-MrVJk0RjTGod1bp-19" value="&lt;span style=&quot;font-family: &amp;quot;Lucida Console&amp;quot;; font-size: 10px;&quot;&gt;c(2,4)&lt;/span&gt;" style="rounded=1;whiteSpace=wrap;html=1;fillColor=none;" vertex="1" parent="1">
          <mxGeometry x="380" y="470" width="40" height="40" as="geometry" />
        </mxCell>
        <mxCell id="n9YK-MrVJk0RjTGod1bp-20" value="&lt;span style=&quot;font-family: &amp;quot;Lucida Console&amp;quot;; font-size: 10px;&quot;&gt;c(2,5)&lt;/span&gt;" style="rounded=1;whiteSpace=wrap;html=1;fillColor=none;" vertex="1" parent="1">
          <mxGeometry x="430" y="470" width="40" height="40" as="geometry" />
        </mxCell>
        <mxCell id="n9YK-MrVJk0RjTGod1bp-21" value="&lt;span style=&quot;font-family: &amp;quot;Lucida Console&amp;quot;; font-size: 10px;&quot;&gt;c(0,4)&lt;/span&gt;" style="rounded=1;whiteSpace=wrap;html=1;fillColor=none;" vertex="1" parent="1">
          <mxGeometry x="480" y="320" width="40" height="40" as="geometry" />
        </mxCell>
        <mxCell id="n9YK-MrVJk0RjTGod1bp-24" value="c(1,0)" style="rounded=1;whiteSpace=wrap;html=1;fillColor=none;fontFamily=Lucida Console;fontSize=10;" vertex="1" parent="1">
          <mxGeometry x="330" y="370" width="40" height="40" as="geometry" />
        </mxCell>
        <mxCell id="n9YK-MrVJk0RjTGod1bp-25" value="&lt;span style=&quot;font-family: &amp;quot;Lucida Console&amp;quot;; font-size: 10px;&quot;&gt;c(1,4)&lt;/span&gt;" style="rounded=1;whiteSpace=wrap;html=1;fillColor=none;" vertex="1" parent="1">
          <mxGeometry x="280" y="420" width="40" height="40" as="geometry" />
        </mxCell>
        <mxCell id="n9YK-MrVJk0RjTGod1bp-26" value="&lt;span style=&quot;font-family: &amp;quot;Lucida Console&amp;quot;; font-size: 10px;&quot;&gt;c(1,5)&lt;/span&gt;" style="rounded=1;whiteSpace=wrap;html=1;fillColor=none;" vertex="1" parent="1">
          <mxGeometry x="330" y="420" width="40" height="40" as="geometry" />
        </mxCell>
      </root>
    </mxGraphModel>
  </diagram>
</mxfile>
